<svg xmlns="http://www.w3.org/2000/svg" width="1402.387" height="1402.31" viewBox="0 0 1402.387 1402.31">
  <g id="Favicon" transform="translate(2292 -3175.99)">
    <path id="Path_1" data-name="Path 1" d="M801.31,0H500.82C224.22,0,0,224.22,0,500.82V1402.3H500.82c537.07,0,955.13-466.57,895.98-1001.65A896.275,896.275,0,0,0,1250.49-.01H801.31ZM556.04,796.26c-41.77,7.76-110.59,5.06-155.38,5.06v323.29c9.38-62.04,7.74-86.8,13.93-130.35,345.81,60.51,647.45-246.67,577.04-593.6H600.99c-110.63,0-200.32,89.69-200.32,200.33H784.23A300.974,300.974,0,0,1,556.05,796.26Zm459.12-595.93H1134.5c201.62,424.4-66.35,927.72-533.52,994.55-66.09,9.46-133.36,7.1-200.32,7.1H200.33V500.83c0-165.8,134.5-300.25,299.58-300.49h515.25Z" transform="translate(-2292 3176)" fill="#f5b83f" fill-rule="evenodd"/>
  </g>
</svg>
